<?xml version="1.0" encoding="utf-8"?>
<!-- Generator: Adobe Illustrator 21.1.0, SVG Export Plug-In . SVG Version: 6.00 Build 0)  -->
<svg version="1.1" id="Layer_1" xmlns="http://www.w3.org/2000/svg" xmlns:xlink="http://www.w3.org/1999/xlink" x="0px" y="0px"
	 viewBox="0 0 45 45" style="enable-background:new 0 0 45 45;" xml:space="preserve">
<style type="text/css">
	.st0{fill:#3C3C3C;}
</style>
<path class="st0" d="M21,0.6C9.5,1.3,0.3,10.9,0,22.4c-0.3,10.2,6.2,19,15.4,22c1.1,0.2,1.5-0.5,1.5-1.1c0-0.5,0-2.3,0-4.2
	c-5.7,1-7.1-1.4-7.6-2.6C9.1,35.9,8,33.9,7,33.3c-0.8-0.4-1.9-1.5,0-1.5c1.8,0,3,1.6,3.5,2.3c2,3.4,5.3,2.5,6.6,1.9
	c0.2-1.5,0.8-2.5,1.4-3c-5-0.6-10.2-2.5-10.2-11.1c0-2.5,0.9-4.5,2.3-6.1c-0.2-0.6-1-2.9,0.2-6c0,0,1.9-0.6,6.2,2.3
	c1.8-0.5,3.7-0.8,5.6-0.8s3.8,0.3,5.6,0.8c4.3-2.9,6.2-2.3,6.2-2.3c1.2,3.1,0.4,5.4,0.2,6c1.4,1.6,2.3,3.6,2.3,6.1
	c0,8.6-5.3,10.6-10.3,11.1c0.8,0.7,1.5,2.1,1.5,4.2c0,3,0,5.4,0,6.2c0,0.6,0.4,1.3,1.5,1.1C38.6,41.4,45,33,45,23
	C45,10.1,34.1-0.3,21,0.6z"/>
</svg>
